<svg width="132" height="40" xmlns="http://www.w3.org/2000/svg">
 <defs>
  <style type="text/css">
   <![CDATA[
    .fil0 {fill:#F59D0E}
    .fil1 {fill:#FEFEFE;fill-rule:nonzero}
   ]]>
  </style>
 </defs>
 <g>
  <title>background</title>
  <rect fill="none" id="canvas_background" height="42" width="134" y="-1" x="-1"/>
 </g>
 <g>
  <title>Layer 1</title>
  <g stroke="null" id="Layer_x0020_1">
   <metadata stroke="null" transform="translate(0,-0.5714266896247864) translate(1,1) translate(1,1) scale(0.03618389368057251) translate(-1,-1) translate(27.636606216430664,27.636606216430664) scale(0.9693045020103455) translate(-27.636606216430664,-27.636606216430664) translate(3758.51171875,1151.51171875) scale(1.0065518617630005) translate(-3758.51171875,-1151.51171875) " id="CorelCorpID_0Corel-Layer"/>
   <g stroke="null" id="_1864353983424">
    <g stroke="null" id="svg_1">
     <path stroke="null" id="svg_2" d="m130.44626,0.276423c0.70606,0 1.376817,0.635454 1.376817,1.341514l0,14.721353c0,0.247121 -0.247121,0.494242 -0.529545,0.35303l-15.462717,-6.848783c-1.306211,-0.600151 -1.659241,-0.600151 -2.930149,0l-15.49802,6.848783c-0.282424,0.141212 -0.529545,-0.105909 -0.529545,-0.35303l0,-14.721353c0,-0.70606 0.670757,-1.341514 1.376817,-1.341514l32.196341,0z" class="fil0"/>
     <path stroke="null" id="svg_3" d="m97.720374,25.906405l15.956959,-7.095904c0.458939,-0.176515 0.882575,-0.176515 1.341514,0l15.992262,7.095904c0.847272,0.388333 0.635454,0.953181 0,1.235605l-15.674535,7.060601c-0.811969,0.35303 -1.164999,0.35303 -1.976968,0l-15.674535,-7.060601c-0.635454,-0.282424 -0.811969,-0.847272 0.035303,-1.235605z" class="fil0"/>
    </g>
    <path stroke="null" id="svg_4" d="m23.407546,1.582634l-0.176515,0.776666l-7.060601,24.535589c-0.247121,0.882575 -0.564848,1.694544 -0.917878,2.435907c-0.458939,0.953181 -0.988484,1.659241 -1.623938,2.188786c-0.600151,0.529545 -1.306211,0.917878 -2.11818,1.235605c-0.776666,0.282424 -1.76515,0.423636 -2.965452,0.423636c-1.694544,0 -3.389089,-0.388333 -5.154239,-1.164999c-0.564848,-0.247121 -0.917878,-0.494242 -1.05909,-0.670757c-0.105909,-0.176515 -0.105909,-0.388333 -0.035303,-0.635454l1.41212,-3.459695c0.035303,-0.105909 0.105909,-0.176515 0.211818,-0.211818c0.105909,-0.035303 0.211818,-0.070606 0.247121,-0.105909c0.141212,0 0.388333,0.105909 0.741363,0.317727c1.094393,0.635454 2.082877,0.988484 2.894846,0.988484c0.882575,0 1.659241,-0.282424 2.259392,-0.811969c0.600151,-0.494242 1.05909,-1.306211 1.341514,-2.365301l0.388333,-1.518029l-3.036059,0c-0.211818,0 -0.423636,-0.141212 -0.529545,-0.423636l-7.87257,-20.828773l-0.211818,-0.776666c0,-0.282424 0.458939,-0.458939 1.341514,-0.564848l4.130452,-0.35303c0.141212,-0.035303 0.282424,-0.070606 0.388333,-0.070606c0.141212,0 0.211818,0 0.247121,0c0.317727,0 0.494242,0.035303 0.564848,0.141212c0.035303,0.070606 0.141212,0.317727 0.317727,0.776666l3.530301,11.014538l1.906362,6.566359l0.211818,0l1.588635,-6.566359l2.859543,-10.908629c0.035303,-0.176515 0.070606,-0.423636 0.176515,-0.670757c0.105909,-0.282424 0.35303,-0.388333 0.811969,-0.35303l4.236361,0.529545c0.635454,0.070606 0.953181,0.282424 0.953181,0.529545zm25.206346,37.315277c0,0.635454 -0.317727,0.917878 -0.917878,0.917878l-3.98924,0c-0.423636,0 -0.70606,-0.105909 -0.776666,-0.317727c-0.105909,-0.211818 -0.141212,-0.388333 -0.141212,-0.600151l0,-6.495753l-16.521807,0c-0.423636,0 -0.70606,-0.105909 -0.776666,-0.317727c-0.105909,-0.211818 -0.141212,-0.423636 -0.141212,-0.600151l0,-29.619222c0,-0.423636 0.105909,-0.670757 0.317727,-0.776666c0.211818,-0.105909 0.423636,-0.141212 0.600151,-0.141212l4.412876,0c0.423636,0 0.670757,0.105909 0.776666,0.317727c0.070606,0.211818 0.141212,0.423636 0.141212,0.600151l0,25.559376l8.013782,0l0,-25.559376c0,-0.423636 0.105909,-0.670757 0.317727,-0.776666c0.211818,-0.105909 0.423636,-0.141212 0.600151,-0.141212l4.412876,0c0.423636,0 0.70606,0.105909 0.776666,0.317727c0.105909,0.211818 0.141212,0.423636 0.141212,0.600151l0,25.559376l1.835756,0c0.600151,0 0.917878,0.317727 0.917878,0.917878l0,10.555599zm20.475743,-8.649236c0,0.141212 -0.035303,0.282424 -0.141212,0.388333c-0.105909,0.141212 -0.211818,0.247121 -0.423636,0.388333c-0.776666,0.635454 -1.835756,1.164999 -3.141968,1.553332c-1.306211,0.388333 -2.612422,0.600151 -3.98924,0.600151c-3.247877,0 -5.824996,-0.917878 -7.731358,-2.718331c-1.553332,-1.447423 -2.683028,-3.565604 -3.353786,-6.283935c-0.494242,-1.976968 -0.741363,-4.34227 -0.741363,-7.060601c0,-6.354541 1.341514,-10.943932 3.98924,-13.768172c2.012271,-2.11818 4.554088,-3.177271 7.696055,-3.177271c1.270908,0 2.506513,0.176515 3.706816,0.564848c1.200302,0.35303 2.259392,0.917878 3.177271,1.729847c0.564848,0.494242 0.847272,0.882575 0.847272,1.200302c0,0.070606 -0.070606,0.282424 -0.211818,0.600151l-1.694544,2.577119c-0.176515,0.282424 -0.35303,0.458939 -0.529545,0.458939c-0.105909,0 -0.247121,-0.070606 -0.458939,-0.176515c-0.176515,-0.105909 -0.35303,-0.211818 -0.494242,-0.35303c-0.670757,-0.529545 -1.306211,-0.953181 -1.871059,-1.235605c-0.600151,-0.282424 -1.235605,-0.423636 -1.941665,-0.423636c-1.553332,0 -2.788937,0.494242 -3.706816,1.482726c-0.70606,0.741363 -1.200302,1.871059 -1.518029,3.389089c-0.317727,1.518029 -0.458939,3.777422 -0.458939,6.81348c0,1.659241 0.105909,3.177271 0.282424,4.624694c0.282424,2.259392 0.811969,3.883331 1.518029,4.871815c0.388333,0.529545 0.917878,0.953181 1.588635,1.341514c0.670757,0.388333 1.482726,0.600151 2.435907,0.600151c1.235605,0 2.47121,-0.388333 3.777422,-1.164999c0.176515,-0.105909 0.388333,-0.247121 0.600151,-0.35303c0.211818,-0.141212 0.388333,-0.211818 0.529545,-0.211818c0.211818,0 0.423636,0.176515 0.600151,0.458939l1.41212,2.577119c0.176515,0.282424 0.247121,0.529545 0.247121,0.70606zm21.993773,-7.201813c0,2.329998 -0.529545,4.271664 -1.623938,5.75439c-1.694544,2.400604 -4.730603,3.600907 -9.03757,3.600907l-8.366812,0c-0.423636,0 -0.670757,-0.105909 -0.776666,-0.317727c-0.070606,-0.211818 -0.141212,-0.423636 -0.141212,-0.600151l0,-29.619222c0,-0.423636 0.105909,-0.670757 0.35303,-0.776666c0.211818,-0.105909 0.388333,-0.141212 0.564848,-0.141212l16.098171,0c0.458939,0 0.670757,0.176515 0.670757,0.494242l-0.105909,0.458939l-0.917878,3.28318c-0.070606,0.247121 -0.176515,0.423636 -0.317727,0.529545c-0.141212,0.141212 -0.388333,0.211818 -0.70606,0.211818l-9.3906,0l0,7.51954l3.212574,0c1.341514,0 2.612422,0.105909 3.812725,0.35303c1.164999,0.211818 2.224089,0.670757 3.212574,1.341514c0.988484,0.670757 1.76515,1.553332 2.365301,2.647725c0.70606,1.41212 1.094393,3.177271 1.094393,5.260148zm-6.213329,-0.141212c0,-1.482726 -0.388333,-2.612422 -1.200302,-3.353786c-0.776666,-0.776666 -2.188786,-1.164999 -4.165755,-1.164999l-2.11818,0l0,9.03757l1.659241,0c1.76515,0 3.106665,-0.211818 3.953937,-0.670757c1.235605,-0.670757 1.871059,-1.976968 1.871059,-3.848028z" class="fil1"/>
   </g>
  </g>
 </g>
</svg>